<svg width="16" height="16" viewBox="0 0 16 16" fill="none" xmlns="http://www.w3.org/2000/svg">
<path d="M6.40172 9.67965L6.4226 9.73427C6.4291 9.7519 6.43891 9.77552 6.44731 9.80036L6.47766 9.88771C6.48953 9.92111 6.49919 9.95487 6.51185 9.99396C6.52391 10.0325 6.53819 10.0757 6.54938 10.1181L6.58844 10.2578C6.60131 10.3065 6.61213 10.3554 6.62516 10.4086C6.68099 10.6385 6.72065 10.8721 6.74385 11.1076C6.75716 11.2329 6.76281 11.3578 6.7656 11.4862C6.76578 11.6121 6.76275 11.7412 6.75097 11.8673C6.73941 11.9927 6.72037 12.1173 6.69394 12.2404C6.66743 12.3612 6.63244 12.4801 6.58922 12.596C6.50306 12.8258 6.38222 13.0382 6.22525 13.2259C6.1476 13.3206 6.05685 13.4051 5.96694 13.4926C5.87575 13.5787 5.78244 13.665 5.68503 13.7485C5.48807 13.9195 5.28227 14.0799 5.0685 14.2293C4.85263 14.3811 4.62556 14.5217 4.39266 14.6508C4.27598 14.7148 4.15775 14.7759 4.03806 14.8341C3.91876 14.8913 3.79808 14.9457 3.67613 14.9971C3.43288 15.0986 3.18778 15.1867 2.94478 15.2596C2.71019 15.3305 2.47224 15.3897 2.23181 15.4372C1.772 15.5288 1.34997 15.5664 1.03628 15.5745L0.924127 15.5764L0.823408 15.5763L0.660346 15.572L0.555814 15.5658L0.518877 15.5627L0.515689 15.5257L0.509564 15.4212L0.505221 15.2581L0.505127 15.1574L0.507064 15.0452C0.515096 14.7316 0.552658 14.3095 0.644377 13.8497C0.691808 13.6093 0.751046 13.3713 0.821877 13.1367C0.894846 12.8937 0.982939 12.6486 1.08441 12.4054C1.1358 12.2834 1.19016 12.1628 1.24744 12.0435C1.30556 11.9242 1.3665 11.8056 1.43072 11.6889C1.55975 11.456 1.70038 11.2289 1.85219 11.013C2.00155 10.7992 2.16204 10.5934 2.33297 10.3965C2.41653 10.2991 2.50272 10.2057 2.58894 10.1146C2.67641 10.0247 2.76088 9.93393 2.8556 9.85627C3.04335 9.6993 3.25569 9.57846 3.4855 9.4923C3.60143 9.4491 3.72025 9.4141 3.8411 9.38758C3.96422 9.36116 4.08882 9.34211 4.21422 9.33055C4.34031 9.31877 4.46944 9.31574 4.59528 9.31593C4.72372 9.31868 4.8486 9.32436 4.97394 9.33768C5.2094 9.36086 5.44296 9.40052 5.67288 9.45636C5.7261 9.46936 5.77497 9.48021 5.82369 9.49308L5.96338 9.53215C6.00581 9.54336 6.049 9.55761 6.08753 9.56968C6.12666 9.5823 6.16038 9.59199 6.19378 9.60386L6.28113 9.63421C6.30597 9.64261 6.3296 9.65243 6.34722 9.65893C6.38313 9.67252 6.40172 9.67965 6.40172 9.67965Z" fill="#FFB636"/>
<path d="M2.40188 5.67975L0.135817 7.94581C-0.0208082 8.10243 0.0901293 8.37025 0.311629 8.37025H2.21616C2.2821 8.37025 2.34535 8.39643 2.39197 8.44306L3.6286 9.67968L5.63707 5.60693H2.57769C2.54504 5.60692 2.51271 5.61335 2.48254 5.62584C2.45237 5.63834 2.42496 5.65665 2.40188 5.67975Z" fill="#FF473E"/>
<path d="M6.755 12.2685L7.99163 13.5051C8.03826 13.5517 8.06445 13.615 8.06445 13.6809V15.5854C8.06445 15.8069 8.33226 15.9179 8.48889 15.7613L10.755 13.4952C10.8016 13.4486 10.8278 13.3853 10.8278 13.3194V10.26L6.755 12.2685Z" fill="#FF473E"/>
<path d="M15.8015 0.558586L15.8039 0.578493C15.8054 0.591586 15.8083 0.611774 15.8103 0.63668C15.8144 0.686461 15.8237 0.763586 15.8281 0.856461C15.8422 1.04752 15.8517 1.31649 15.8451 1.64009C15.8386 1.96387 15.8158 2.34209 15.7664 2.75265C15.7553 2.85659 15.7395 2.95949 15.7243 3.06643C15.7101 3.17446 15.6899 3.27999 15.6715 3.39059C15.6337 3.61081 15.5865 3.8349 15.5321 4.06349C15.4186 4.53792 15.2745 5.00449 15.1007 5.46027C14.9214 5.92968 14.7062 6.39856 14.4539 6.85402C14.2014 7.30912 13.914 7.75303 13.5928 8.17496C13.2721 8.59731 12.918 8.99809 12.5381 9.37302C12.1582 9.74799 11.753 10.0976 11.3273 10.4149C11.2208 10.4942 11.1137 10.5722 11.0042 10.6468C10.8959 10.7226 10.7852 10.7951 10.6749 10.8669C10.4533 11.0095 10.227 11.1429 9.99835 11.2681C9.5482 11.5143 9.08183 11.7297 8.60244 11.9126C8.14693 12.086 7.68097 12.2307 7.20732 12.3457C6.97922 12.4007 6.75632 12.449 6.53647 12.4872L6.37463 12.5163C6.321 12.5255 6.2666 12.5331 6.21379 12.5414L6.05707 12.5653L5.90163 12.5851C5.49329 12.6367 5.11757 12.662 4.79616 12.6709C4.4751 12.6801 4.20766 12.6721 4.01879 12.6602C3.92685 12.6567 3.85022 12.6479 3.80104 12.6444C3.77638 12.6426 3.75635 12.6399 3.74341 12.6386L3.72369 12.6364C3.57425 12.6197 3.46091 12.5011 3.44497 12.3577L3.44279 12.338C3.44147 12.325 3.43875 12.305 3.43694 12.2803C3.43347 12.2312 3.42466 12.1546 3.42119 12.0626C3.40925 11.8737 3.40132 11.6063 3.41047 11.2852C3.41932 10.9638 3.44463 10.5881 3.49629 10.1797L3.51607 10.0243L3.53997 9.86759C3.54825 9.81477 3.55585 9.7604 3.565 9.70674L3.59416 9.5449C3.63232 9.32506 3.68069 9.10215 3.73566 8.87406C3.85063 8.4004 3.99527 7.93444 4.16872 7.47893C4.35169 6.99956 4.56705 6.53318 4.81329 6.08302C4.9385 5.8544 5.07191 5.62806 5.21444 5.40643C5.28625 5.29615 5.35875 5.18549 5.43457 5.07718C5.50916 4.96765 5.58713 4.86059 5.66641 4.75412C5.98372 4.32837 6.33335 3.92312 6.70832 3.54324C7.08325 3.16334 7.48404 2.80924 7.90638 2.48852C8.32832 2.1674 8.77222 1.88002 9.22732 1.62743C9.68279 1.37521 10.1517 1.16002 10.6211 0.980711C11.0769 0.80689 11.5434 0.662786 12.0178 0.549305C12.2464 0.494836 12.4705 0.447649 12.6908 0.409836C12.8013 0.39143 12.9069 0.371274 13.0149 0.357118C13.1219 0.341868 13.2247 0.326055 13.3287 0.315024C13.7393 0.265586 14.1175 0.242774 14.4413 0.236305C14.7648 0.229649 15.0338 0.239118 15.2249 0.253274C15.3178 0.25768 15.3949 0.266993 15.4447 0.271055C15.4696 0.273118 15.4898 0.275961 15.5029 0.277461L15.5228 0.279868C15.6718 0.297836 15.7843 0.41593 15.8015 0.558586Z" fill="#ECEBEB"/>
<path d="M7.59709 8.48429L7.61531 8.53357C7.62546 8.56423 7.63915 8.60832 7.64859 8.65745C7.67096 8.75917 7.67837 8.88298 7.63793 8.99066C7.618 9.04479 7.58112 9.08991 7.5464 9.14448L7.431 9.31807L7.15396 9.73407C7.04395 9.89708 6.93299 10.0594 6.82109 10.2212C6.69638 10.4011 6.57018 10.58 6.4425 10.7578L6.23906 11.0378L6.02768 11.3217C5.88428 11.5115 5.73753 11.7034 5.58831 11.8927C5.44054 12.0814 5.29091 12.2686 5.13943 12.4543C4.99003 12.6382 4.84353 12.8197 4.69934 12.9929L4.48781 13.2489C4.41775 13.3316 4.35403 13.4173 4.28003 13.4888C4.2065 13.5607 4.12165 13.6174 4.02415 13.6568C3.9275 13.697 3.82168 13.7234 3.71937 13.7481C3.52651 13.7938 3.33154 13.8302 3.13515 13.8569C3.0444 13.8694 2.95762 13.8791 2.87565 13.8864C2.79412 13.8942 2.71525 13.8973 2.64612 13.9023C2.57646 13.9067 2.50996 13.9063 2.4544 13.9083C2.398 13.9094 2.34721 13.9075 2.30746 13.9075C2.26687 13.9066 2.23443 13.9045 2.21321 13.9038L2.1799 13.9016L2.17765 13.8683C2.17693 13.847 2.1749 13.8146 2.174 13.774C2.17393 13.7343 2.17209 13.6835 2.17321 13.6271C2.17515 13.5715 2.17481 13.505 2.17921 13.4354C2.18415 13.3662 2.18728 13.2874 2.19503 13.2058C2.20234 13.1239 2.21209 13.0371 2.22453 12.9463C2.25131 12.7499 2.28763 12.555 2.33334 12.3621C2.35803 12.2598 2.38446 12.154 2.42468 12.0573C2.46406 11.9598 2.52075 11.875 2.59268 11.8014C2.66418 11.7275 2.7499 11.6638 2.83262 11.5937L3.08862 11.3822C3.26184 11.238 3.44331 11.0914 3.62721 10.9421C3.81081 10.7924 3.99887 10.6419 4.18878 10.4932C4.37812 10.3439 4.56996 10.1972 4.75984 10.0538L5.04375 9.84245L5.32371 9.63901C5.50154 9.51134 5.68042 9.38513 5.86034 9.26042C6.03221 9.14132 6.19593 9.02995 6.34743 8.92754L6.76343 8.65051L6.93703 8.5351C6.99156 8.50038 7.03668 8.46351 7.09084 8.44357C7.19853 8.40313 7.32234 8.41054 7.42406 8.43292C7.47318 8.44235 7.51728 8.45604 7.54793 8.4662L7.59709 8.48429Z" fill="#FF473E"/>
<path d="M11.316 6.45807C11.316 7.39298 10.5581 8.15089 9.62323 8.15089C8.68832 8.15089 7.93042 7.39298 7.93042 6.45807C7.93042 5.52317 8.68832 4.76526 9.62323 4.76526C10.5581 4.76526 11.316 5.52317 11.316 6.45807ZM12.1669 2.83679C11.5718 2.83679 11.0894 3.31923 11.0894 3.91435C11.0894 4.50948 11.5718 4.99192 12.1669 4.99192C12.7621 4.99192 13.2445 4.50948 13.2445 3.91435C13.2445 3.31923 12.7621 2.83679 12.1669 2.83679Z" fill="#2B3B47"/>
</svg>
