<svg width="8" height="4" viewBox="0 0 8 4" fill="none" xmlns="http://www.w3.org/2000/svg">
<path d="M4.32937 0.1152C4.29267 0.079672 4.24356 0.0506224 4.18628 0.030554C4.129 0.0104855 4.06526 -1.05568e-07 4.00054 -1.11225e-07C3.93583 -1.16883e-07 3.87209 0.0104855 3.8148 0.0305539C3.75752 0.0506223 3.70842 0.079672 3.67172 0.1152L0.0714341 3.58163C0.0297609 3.62161 0.00532296 3.66844 0.000774885 3.71703C-0.00377272 3.76562 0.0117431 3.81411 0.0456381 3.85724C0.0795326 3.90036 0.130509 3.93647 0.193029 3.96164C0.25555 3.98681 0.327222 4.00008 0.40026 4L7.60082 4C7.67369 3.9998 7.7451 3.98636 7.80737 3.96113C7.86964 3.9359 7.92041 3.89984 7.95422 3.85681C7.98804 3.81379 8.00362 3.76543 7.99929 3.71694C7.99496 3.66846 7.97088 3.62168 7.92965 3.58163L4.32937 0.1152Z" fill="#0BF3A8"/>
</svg>
