<svg width="12" height="16" viewBox="0 0 12 16" fill="none" xmlns="http://www.w3.org/2000/svg">
<path d="M11.6667 10.0173C11.6666 10.0157 11.6665 10.0141 11.6664 10.0126C11.6182 9.34505 11.4952 8.7782 11.2793 8.23075C11.2764 8.22247 11.2733 8.21426 11.2699 8.20607C11.2575 8.17636 10.0445 5.21691 10.6125 3.5905C10.6637 3.44376 10.6389 3.28119 10.5462 3.15645C10.4534 3.03171 10.3051 2.96123 10.1497 2.96785C10.108 2.96967 9.2596 3.01674 8.35964 3.80855C7.57199 2.18342 7.44762 0.456913 7.44634 0.438076C7.43569 0.274785 7.34066 0.128925 7.19561 0.0531999C7.05053 -0.022557 6.87655 -0.0170588 6.73648 0.0674765C5.4935 0.818297 4.53328 1.7346 3.88252 2.79097C3.35706 3.64389 3.03304 4.58599 2.91942 5.59113C2.8512 6.19491 2.86741 6.74707 2.91774 7.21092C2.94104 7.42582 2.72639 7.5874 2.52633 7.50558L1.32006 7.01208C1.23784 6.97844 1.14787 6.96444 1.06015 6.97856C0.875458 7.0083 0.731566 7.14082 0.682301 7.31227C0.572836 7.69305 0.490863 8.045 0.431663 8.3882C0.225604 9.58347 0.309921 10.8076 0.675397 11.9285C1.04284 13.0552 1.67692 14.0256 2.50909 14.7346C3.49255 15.5725 4.68351 15.9991 5.98222 15.9991C6.69883 15.9991 7.44831 15.8692 8.21372 15.6068C9.42786 15.1906 10.3894 14.3663 10.9944 13.2231C11.4972 12.2728 11.736 11.1343 11.6667 10.0173Z" fill="#EE6626"/>
<path d="M11.6664 10.0126C11.6183 9.34505 11.4952 8.7782 11.2793 8.23075C11.2764 8.22247 11.2733 8.21426 11.2699 8.20607C11.2576 8.17636 10.0445 5.21691 10.6125 3.5905C10.6638 3.44376 10.6389 3.28119 10.5462 3.15645C10.4534 3.03171 10.3051 2.96123 10.1497 2.96785C10.1127 2.96945 9.43989 3.00675 8.65967 3.5691C8.4981 3.68556 8.26958 3.62183 8.19192 3.43842C7.5539 1.93175 7.44753 0.455476 7.44634 0.438076C7.43569 0.274785 7.34066 0.128925 7.19561 0.0531999C7.05053 -0.022557 6.87656 -0.0170588 6.73648 0.0674765C6.48874 0.217116 6.25244 0.37344 6.02739 0.536013V15.9985C6.73032 15.9932 7.4643 15.8636 8.21366 15.6068C9.4278 15.1906 10.3894 14.3663 10.9944 13.2231C11.4973 12.2728 11.736 11.1343 11.6667 10.0173C11.6666 10.0157 11.6665 10.0141 11.6664 10.0126Z" fill="#FF473E"/>
<path d="M7.26848 8.12484C7.15002 7.94811 6.9274 7.87317 6.72628 7.94274C6.52515 8.01219 6.39607 8.20837 6.41191 8.42056C6.4678 9.16957 6.39292 11.3719 5.35119 11.6576C4.46438 11.9008 3.99135 11.4901 3.94539 11.4475C3.8304 11.3221 3.66161 11.2746 3.49585 11.3143C3.32897 11.3545 3.20282 11.4884 3.1583 11.6542C3.14946 11.6871 3.07105 11.981 3.038 12.1725C2.82607 13.402 3.22797 14.6203 4.08691 15.3521C4.59072 15.7813 5.19836 15.9999 5.85899 15.9999C6.21938 15.9999 6.59563 15.9348 6.9791 15.8033C7.597 15.5915 8.12533 15.1435 8.50699 14.5077C8.82623 13.9758 9.01185 13.3552 9.01635 12.8051C9.02779 11.3896 8.48874 9.94616 7.26848 8.12484Z" fill="#E4D62C"/>
<path d="M6.72629 7.94274C6.52516 8.01219 6.39608 8.20837 6.41192 8.42056C6.45181 8.95523 6.42495 10.2304 6.02742 11.0204V15.9947C6.33607 15.9777 6.65497 15.9145 6.97914 15.8034C7.59704 15.5916 8.12536 15.1435 8.50702 14.5077C8.82626 13.9759 9.01189 13.3553 9.01639 12.8051C9.02782 11.3896 8.48875 9.94613 7.26852 8.12484C7.15002 7.94811 6.92741 7.87317 6.72629 7.94274Z" fill="#FFB636"/>
</svg>
