<svg width="21" height="21" viewBox="0 0 21 21" fill="none" xmlns="http://www.w3.org/2000/svg">
    <path
        d="M20 20L15.514 15.506M18 9.5C18 11.7543 17.1045 13.9163 15.5104 15.5104C13.9163 17.1045 11.7543 18 9.5 18C7.24566 18 5.08365 17.1045 3.48959 15.5104C1.89553 13.9163 1 11.7543 1 9.5C1 7.24566 1.89553 5.08365 3.48959 3.48959C5.08365 1.89553 7.24566 1 9.5 1C11.7543 1 13.9163 1.89553 15.5104 3.48959C17.1045 5.08365 18 7.24566 18 9.5Z"
        stroke="url(#paint0_linear_747_10653)" stroke-width="1.5" stroke-linecap="round"/>
    <defs>
        <linearGradient id="paint0_linear_747_10653" x1="19.2083" y1="17.75" x2="1.0016" y2="16.7347"
                        gradientUnits="userSpaceOnUse">
            <stop stop-color="#04AD79"/>
            <stop offset="1" stop-color="#00AE76"/>
        </linearGradient>
    </defs>
</svg>
